<?xml version="1.0" encoding="UTF-8"?>
<!DOCTYPE svg PUBLIC "-//W3C//DTD SVG 1.1//EN" "http://www.w3.org/Graphics/SVG/1.1/DTD/svg11.dtd">
<svg xmlns="http://www.w3.org/2000/svg" version="1.1" width="180px" height="180px" style="shape-rendering:geometricPrecision; text-rendering:geometricPrecision; image-rendering:optimizeQuality; fill-rule:evenodd; clip-rule:evenodd" xmlns:xlink="http://www.w3.org/1999/xlink">
<g><path style="opacity:1" fill="#252628" d="M -0.5,-0.5 C 59.5,-0.5 119.5,-0.5 179.5,-0.5C 179.5,40.8333 179.5,82.1667 179.5,123.5C 178.07,123.421 176.736,123.754 175.5,124.5C 174.534,122.604 174.201,120.604 174.5,118.5C 173.5,118.5 172.5,118.5 171.5,118.5C 171.785,120.288 171.452,121.955 170.5,123.5C 170.413,121.297 170.413,119.13 170.5,117C 167.788,114.993 166.288,115.826 166,119.5C 165.147,117.065 164.147,114.731 163,112.5C 161.436,114.665 161.603,116.332 163.5,117.5C 162.635,117.564 161.635,117.897 160.5,118.5C 159.134,114.632 156.8,111.465 153.5,109C 155.049,107.786 156.215,106.286 157,104.5C 157.089,107.849 158.256,108.349 160.5,106C 161.138,101.624 161.138,97.1237 160.5,92.5C 161.5,92.5 162.5,92.5 163.5,92.5C 164.825,87.1075 164.825,82.1075 163.5,77.5C 162.416,78.6651 161.583,79.9984 161,81.5C 160.5,81 160,80.5 159.5,80C 160.249,78.2663 160.749,76.433 161,74.5C 162,74.8333 163,75.1667 164,75.5C 164.203,71.5787 164.703,67.7454 165.5,64C 164.663,62.9887 164.33,61.8221 164.5,60.5C 160.901,60.2619 160.567,61.2619 163.5,63.5C 163.023,64.4776 162.357,65.3109 161.5,66C 162.357,66.6891 163.023,67.5224 163.5,68.5C 162.194,69.9122 161.36,71.5789 161,73.5C 160.219,72.2713 159.719,70.938 159.5,69.5C 160.228,67.8453 160.395,66.1786 160,64.5C 159.259,63.3595 158.425,63.3595 157.5,64.5C 157.029,60.2118 154.862,57.2118 151,55.5C 150.71,53.9559 150.044,52.6226 149,51.5C 147.853,52.4581 146.853,52.1247 146,50.5C 144.954,52.0905 143.787,53.5905 142.5,55C 143.554,56.3876 143.72,57.8876 143,59.5C 142.751,58.376 142.251,57.376 141.5,56.5C 140.757,57.9079 139.923,59.2412 139,60.5C 137.927,59.7203 136.76,59.887 135.5,61C 136.28,62.073 136.113,63.2396 135,64.5C 133,61.5 133,58.5 135,55.5C 136.483,57.9458 137.649,57.6124 138.5,54.5C 136.944,52.2985 135.777,52.2985 135,54.5C 134.691,53.2341 134.191,52.0674 133.5,51C 136.428,49.7402 138.261,47.5735 139,44.5C 140.44,47.2961 141.273,49.9628 141.5,52.5C 143.831,49.0569 143.497,45.7236 140.5,42.5C 139.094,43.6682 137.928,43.3348 137,41.5C 136.085,42.3279 135.419,43.3279 135,44.5C 134.667,44.1667 134.333,43.8333 134,43.5C 133.48,40.5073 132.814,37.5073 132,34.5C 131.383,35.4491 131.549,36.2825 132.5,37C 130.338,39.5219 130.005,42.3553 131.5,45.5C 135.335,46.6644 135.168,47.6644 131,48.5C 130.667,49.8333 130.333,51.1667 130,52.5C 129.306,51.1824 128.473,50.3491 127.5,50C 127.726,47.2202 127.726,44.3869 127.5,41.5C 126.833,42.1667 126.167,42.8333 125.5,43.5C 124.531,39.365 122.031,36.6983 118,35.5C 116.831,36.0085 115.998,36.8419 115.5,38C 115.93,40.3875 116.596,43.0541 117.5,46C 117.138,47.2247 116.638,48.3914 116,49.5C 116.026,47.1281 115.192,44.7947 113.5,42.5C 112.833,44.1667 112.167,45.8333 111.5,47.5C 109.898,46.45 109.065,47.1167 109,49.5C 108.25,48.8742 107.416,48.3742 106.5,48C 106.727,46.8647 107.06,45.698 107.5,44.5C 109.263,45.9538 110.597,45.6204 111.5,43.5C 110.03,40.6807 110.196,38.014 112,35.5C 112.915,36.3279 113.581,37.3279 114,38.5C 114.931,36.5405 115.764,34.5405 116.5,32.5C 116.154,31.3044 115.654,31.3044 115,32.5C 114.667,31.5 114.333,30.5 114,29.5C 113.311,30.3567 112.478,31.0233 111.5,31.5C 110.438,28.2449 109.605,25.2449 109,22.5C 108.5,23.5 108,24.5 107.5,25.5C 106.998,26.521 106.332,26.6877 105.5,26C 105.833,25.6667 106.167,25.3333 106.5,25C 105.809,23.9326 105.309,22.7659 105,21.5C 104.937,25.9649 104.103,30.4649 102.5,35C 105.165,37.7109 104.498,38.7109 100.5,38C 101.28,36.927 101.113,35.7604 100,34.5C 98.7052,35.8412 98.2052,37.1745 98.5,38.5C 96.7314,36.5417 96.0647,34.5417 96.5,32.5C 96.8825,38.8339 94.5491,40.5005 89.5,37.5C 88.7868,35.2241 88.2868,32.8907 88,30.5C 87.586,30.0426 87.086,29.7093 86.5,29.5C 86.7036,30.5294 86.2036,31.5294 85,32.5C 83.6626,31.2351 82.1626,30.7351 80.5,31C 81.8146,32.3946 81.4812,33.3946 79.5,34C 81.9818,35.5944 82.1485,37.4277 80,39.5C 78,38.8333 76,38.1667 74,37.5C 72.8684,39.3392 72.0351,41.3392 71.5,43.5C 72.7757,44.6446 74.109,44.6446 75.5,43.5C 78.9075,45.7953 79.0742,48.462 76,51.5C 75.3109,50.6433 74.4776,49.9767 73.5,49.5C 71.6149,52.2146 71.4482,54.8813 73,57.5C 74,56.5 75,55.5 76,54.5C 76.3316,59.7474 76.9983,65.0808 78,70.5C 79.3333,69.8333 80.3333,68.8333 81,67.5C 81.3333,68.5 81.6667,69.5 82,70.5C 83.5655,71.0606 84.8989,70.3939 86,68.5C 86.3333,69.5 86.6667,70.5 87,71.5C 87.9234,70.2412 88.7568,68.9079 89.5,67.5C 90.4853,69.772 91.3187,72.1053 92,74.5C 92.8184,71.8929 93.3184,69.2263 93.5,66.5C 90.1562,58.1945 91.3228,57.5278 97,64.5C 97.3333,63.8333 97.6667,63.1667 98,62.5C 98.6667,64.5 98.6667,66.5 98,68.5C 97.586,68.0426 97.086,67.7093 96.5,67.5C 95.7564,68.9905 95.0897,70.4905 94.5,72C 95.7155,74.0955 96.5488,73.9288 97,71.5C 99.1117,74.2813 101.278,74.6146 103.5,72.5C 104.244,73.9905 104.91,75.4905 105.5,77C 101.458,79.3933 97.7914,82.2266 94.5,85.5C 93.1667,85.5 91.8333,85.5 90.5,85.5C 90.5,84.1667 90.5,82.8333 90.5,81.5C 88.9397,81.5191 87.4397,81.8524 86,82.5C 84.4029,81.1153 82.5695,80.4486 80.5,80.5C 80.5,81.5 80.5,82.5 80.5,83.5C 75.5359,82.4573 73.8692,84.124 75.5,88.5C 74.5,88.5 73.5,88.5 72.5,88.5C 72.4486,90.5695 73.1153,92.4029 74.5,94C 73.8524,95.4397 73.5191,96.9397 73.5,98.5C 77.5,97.8333 79.1667,99.5 78.5,103.5C 80.5695,103.551 82.4029,102.885 84,101.5C 87.284,104.605 89.1173,103.938 89.5,99.5C 91.2915,99.634 92.9582,99.3007 94.5,98.5C 95.9403,99.3629 97.2736,99.3629 98.5,98.5C 99.3857,99.325 99.719,100.325 99.5,101.5C 100.5,101.5 101.5,101.5 102.5,101.5C 113.447,106.024 119.447,102.357 120.5,90.5C 121.183,88.8235 122.517,88.1568 124.5,88.5C 124.187,92.0419 124.521,95.3752 125.5,98.5C 125.624,100.582 126.624,102.082 128.5,103C 131.039,103.796 133.372,103.629 135.5,102.5C 136.397,101.402 137.23,101.402 138,102.5C 138.131,98.6083 139.631,97.775 142.5,100C 145.272,105.835 147.272,105.335 148.5,98.5C 148.833,98.6667 149.167,98.8333 149.5,99C 148.512,101.42 148.845,103.753 150.5,106C 149.672,106.915 148.672,107.581 147.5,108C 148.554,109.388 148.72,110.888 148,112.5C 147.667,111.833 147.333,111.167 147,110.5C 145.812,111.563 145.312,112.897 145.5,114.5C 143.339,114.174 141.506,113.174 140,111.5C 138.32,112.603 136.82,112.27 135.5,110.5C 132.42,112.105 129.92,111.438 128,108.5C 127.044,109.579 126.211,110.745 125.5,112C 126.13,115.129 126.796,118.296 127.5,121.5C 128.937,118.956 130.437,118.956 132,121.5C 132.333,120.833 132.667,120.167 133,119.5C 133.903,120.701 135.069,121.535 136.5,122C 135.672,122.915 134.672,123.581 133.5,124C 134.34,125.666 133.84,125.833 132,124.5C 131.51,125.793 131.343,127.127 131.5,128.5C 130.5,128.5 129.5,128.5 128.5,128.5C 128.509,126.692 128.009,125.025 127,123.5C 126.438,128.836 125.271,129.336 123.5,125C 124.167,124.667 124.833,124.333 125.5,124C 124.167,122.667 124.167,121.333 125.5,120C 123.285,118.057 123.285,116.391 125.5,115C 124.333,114.5 123.5,113.667 123,112.5C 121.333,115.167 119.667,115.167 118,112.5C 116.488,114.957 115.154,114.957 114,112.5C 113.292,115.268 111.792,116.101 109.5,115C 109.833,115.333 110.167,115.667 110.5,116C 109.562,117.063 108.562,118.23 107.5,119.5C 106.68,116.745 105.513,114.078 104,111.5C 103.313,113.568 103.48,115.568 104.5,117.5C 103.846,119.115 103.346,120.782 103,122.5C 102.548,118.862 100.714,116.528 97.5,115.5C 97.4257,111.839 98.4257,111.172 100.5,113.5C 102.807,112.193 102.64,110.86 100,109.5C 98.7651,110.615 97.5984,110.615 96.5,109.5C 95.1667,110.5 93.8333,111.5 92.5,112.5C 92.0894,111.738 91.9227,110.738 92,109.5C 90.2909,112.712 88.7909,112.878 87.5,110C 84.2607,109.136 81.594,109.969 79.5,112.5C 78.8333,112.167 78.1667,111.833 77.5,111.5C 75.371,116.944 76.5377,120.611 81,122.5C 81.6655,125.496 80.4989,127.496 77.5,128.5C 76.7189,129.729 76.2189,131.062 76,132.5C 75.6258,131.584 75.1258,130.75 74.5,130C 74.5,127.333 74.5,124.667 74.5,122C 73.5509,121.383 72.7175,121.549 72,122.5C 71.6667,124.5 71.3333,126.5 71,128.5C 70.6397,126.579 69.8064,124.912 68.5,123.5C 67.2622,126.168 67.2622,128.834 68.5,131.5C 67.7246,135.251 66.3912,135.418 64.5,132C 65.1667,131 65.8333,130 66.5,129C 64.6061,127.899 63.9394,126.566 64.5,125C 63.5509,124.383 62.7175,124.549 62,125.5C 61.6667,124.833 61.3333,124.167 61,123.5C 59.1646,125.326 57.3313,126.326 55.5,126.5C 55.7905,123.044 57.6238,121.044 61,120.5C 61.9377,117.12 61.271,114.12 59,111.5C 56.2175,113.593 53.0508,114.76 49.5,115C 49.8333,115.333 50.1667,115.667 50.5,116C 49.7256,118.405 49.2256,120.905 49,123.5C 48.6258,122.584 48.1258,121.75 47.5,121C 47.6472,119.026 47.9805,117.026 48.5,115C 47.5838,114.626 46.7504,114.126 46,113.5C 45.2228,116.429 45.3895,119.263 46.5,122C 45.5399,123.419 44.7065,124.919 44,126.5C 43.654,124.782 43.154,123.115 42.5,121.5C 43.0253,120.808 43.6919,120.308 44.5,120C 43.4239,117.915 42.7572,116.082 42.5,114.5C 41.7379,115.628 41.0712,116.795 40.5,118C 41.6493,119.604 41.6493,121.27 40.5,123C 40.9054,123.945 41.572,124.612 42.5,125C 39.4386,125.895 39.2719,127.729 42,130.5C 42.4186,129.328 43.0853,128.328 44,127.5C 44.3678,128.91 45.2011,129.91 46.5,130.5C 48.3435,130.245 50.3435,130.078 52.5,130C 52.4375,128.094 52.4375,126.26 52.5,124.5C 53.1229,127.745 54.7896,130.245 57.5,132C 54.8333,132.667 54.8333,133.333 57.5,134C 56.8333,134.333 56.1667,134.667 55.5,135C 57.027,136.368 58.527,136.868 60,136.5C 60.2602,134.382 61.2602,132.716 63,131.5C 62.8516,132.825 63.0183,133.992 63.5,135C 61.5981,136.394 61.2647,138.227 62.5,140.5C 64.1439,140.714 65.6439,140.38 67,139.5C 68.1628,141.285 68.8295,143.285 69,145.5C 71.0324,143.095 72.5324,143.595 73.5,147C 72.0611,147.991 71.0611,149.324 70.5,151C 71.2461,153.093 71.5795,155.093 71.5,157C 70.7471,158.487 69.9138,158.654 69,157.5C 67.9562,159.715 67.2895,162.048 67,164.5C 65.9563,163.377 65.2896,162.044 65,160.5C 64.6397,162.421 63.8064,164.088 62.5,165.5C 64.0379,168.79 63.2046,169.79 60,168.5C 58.2367,168.975 56.57,169.642 55,170.5C 54.3333,167.833 53.6667,167.833 53,170.5C 51.9493,162.732 51.4493,155.065 51.5,147.5C 50.6816,150.107 50.1816,152.774 50,155.5C 48.3148,157.988 46.9814,157.655 46,154.5C 45.5,155 45,155.5 44.5,156C 45.7825,158.795 45.7825,161.628 44.5,164.5C 43.9347,162.49 42.9347,160.824 41.5,159.5C 40.0878,160.806 38.4211,161.64 36.5,162C 36.8333,162.333 37.1667,162.667 37.5,163C 36.552,163.483 35.552,163.649 34.5,163.5C 34.2773,158.679 33.9439,154.012 33.5,149.5C 34.3333,147.833 35.1667,146.167 36,144.5C 36.3076,145.308 36.8076,145.975 37.5,146.5C 38.2436,145.009 38.9103,143.509 39.5,142C 38.5769,139.959 38.2436,137.792 38.5,135.5C 37.448,135.649 36.448,135.483 35.5,135C 34.6959,133.229 33.5292,131.729 32,130.5C 31.586,130.957 31.086,131.291 30.5,131.5C 28.781,129.08 28.6143,126.747 30,124.5C 31,126.167 32,127.833 33,129.5C 33.6667,128.167 34.3333,128.167 35,129.5C 35.3333,128.833 35.6667,128.167 36,127.5C 36.8105,131.901 37.9772,132.234 39.5,128.5C 39.0445,125.515 39.0445,122.682 39.5,120C 38.5305,118.242 37.3639,117.742 36,118.5C 34.8585,115.624 32.6918,113.958 29.5,113.5C 30.154,111.885 30.654,110.218 31,108.5C 33.1403,110.672 35.4736,112.672 38,114.5C 38.3095,113.234 38.8095,112.067 39.5,111C 38.8333,107.333 38.1667,103.667 37.5,100C 38.374,98.2733 38.2074,96.4399 37,94.5C 36.6667,96.5 36.3333,98.5 36,100.5C 34.512,99.8042 33.012,100.138 31.5,101.5C 30.3595,102.425 30.3595,103.259 31.5,104C 29.9387,104.188 29.272,103.355 29.5,101.5C 26.001,101.259 25.6677,102.092 28.5,104C 27.8333,105 27.1667,106 26.5,107C 28.0607,110.385 27.394,111.051 24.5,109C 24.4068,104.634 24.7402,100.134 25.5,95.5C 25.458,92.7414 24.958,90.0747 24,87.5C 23.6667,88.1667 23.3333,88.8333 23,89.5C 22.6667,98.1667 22.3333,106.833 22,115.5C 20.8808,114.448 20.3808,113.281 20.5,112C 19.3999,111.568 18.7332,112.068 18.5,113.5C 18.7189,115.915 20.0523,116.915 22.5,116.5C 22.6567,117.873 22.49,119.207 22,120.5C 20.5064,119.253 19.0064,119.253 17.5,120.5C 17.9767,121.478 18.6433,122.311 19.5,123C 18.3974,125.969 17.064,126.136 15.5,123.5C 14.4164,124.665 13.5831,125.998 13,127.5C 12.5,127 12,126.5 11.5,126C 12.8333,124.667 12.8333,123.333 11.5,122C 12.1667,121.667 12.8333,121.333 13.5,121C 12.1437,118.602 10.9771,116.102 10,113.5C 9.0862,114.654 8.25286,114.487 7.5,113C 10.3557,111.847 13.3557,111.014 16.5,110.5C 18.7208,108.383 20.3875,105.883 21.5,103C 19.3642,101.838 17.3642,100.338 15.5,98.5C 14.1387,100.028 12.972,101.695 12,103.5C 11.6851,100.853 10.5184,100.187 8.5,101.5C 7.91904,98.28 7.58571,95.1133 7.5,92C 8.32791,91.0853 9.32791,90.4186 10.5,90C 9.74714,88.513 8.9138,88.3463 8,89.5C 7.48183,86.9774 6.1485,84.9774 4,83.5C 3.27161,80.7695 3.43828,78.1029 4.5,75.5C 5.32496,74.6143 6.32496,74.281 7.5,74.5C 7.30944,68.0708 7.30944,61.7375 7.5,55.5C 6.83333,55.1667 6.16667,54.8333 5.5,54.5C 6.53119,53.2997 7.36453,51.9663 8,50.5C 9.79129,55.0976 11.2913,55.2642 12.5,51C 11.5939,49.3005 11.2606,47.4672 11.5,45.5C 10.448,45.3505 9.44802,45.5172 8.5,46C 9.65367,46.9138 9.48701,47.7471 8,48.5C 7.06434,45.208 7.56434,42.208 9.5,39.5C 8.16375,37.7598 6.83042,36.0932 5.5,34.5C 4.72672,32.187 4.06006,29.8537 3.5,27.5C 4.90785,26.7568 6.24119,25.9234 7.5,25C 4.78009,18.0044 2.11342,17.8377 -0.5,24.5C -0.5,16.1667 -0.5,7.83333 -0.5,-0.5 Z"/></g>
<g><path style="opacity:1" fill="#252628" d="M 135.5,102.5 C 135.5,101.167 135.5,99.8333 135.5,98.5C 133.833,98.5 132.167,98.5 130.5,98.5C 130.5,94.8333 130.5,91.1667 130.5,87.5C 131.833,87.5 133.167,87.5 134.5,87.5C 135.451,86.0813 135.784,84.4147 135.5,82.5C 133.833,82.5 132.167,82.5 130.5,82.5C 130.5,80.8333 130.5,79.1667 130.5,77.5C 128.833,77.5 127.167,77.5 125.5,77.5C 125.5,79.1667 125.5,80.8333 125.5,82.5C 124.167,82.5 122.833,82.5 121.5,82.5C 121.216,84.4147 121.549,86.0813 122.5,87.5C 123.5,87.5 124.5,87.5 125.5,87.5C 125.5,91.1667 125.5,94.8333 125.5,98.5C 124.521,95.3752 124.187,92.0419 124.5,88.5C 122.517,88.1568 121.183,88.8235 120.5,90.5C 116.967,83.1508 111.301,80.9841 103.5,84C 97.1756,89.4597 96.8423,95.293 102.5,101.5C 101.5,101.5 100.5,101.5 99.5,101.5C 99.719,100.325 99.3857,99.325 98.5,98.5C 97.2736,99.3629 95.9403,99.3629 94.5,98.5C 94.3914,93.7791 94.3914,89.4457 94.5,85.5C 97.7914,82.2266 101.458,79.3933 105.5,77C 104.91,75.4905 104.244,73.9905 103.5,72.5C 101.278,74.6146 99.1117,74.2813 97,71.5C 96.5488,73.9288 95.7155,74.0955 94.5,72C 95.0897,70.4905 95.7564,68.9905 96.5,67.5C 97.086,67.7093 97.586,68.0426 98,68.5C 98.6667,66.5 98.6667,64.5 98,62.5C 97.6667,63.1667 97.3333,63.8333 97,64.5C 91.3228,57.5278 90.1562,58.1945 93.5,66.5C 93.3184,69.2263 92.8184,71.8929 92,74.5C 91.3187,72.1053 90.4853,69.772 89.5,67.5C 88.7568,68.9079 87.9234,70.2412 87,71.5C 86.6667,70.5 86.3333,69.5 86,68.5C 84.8989,70.3939 83.5655,71.0606 82,70.5C 81.6667,69.5 81.3333,68.5 81,67.5C 80.3333,68.8333 79.3333,69.8333 78,70.5C 76.9983,65.0808 76.3316,59.7474 76,54.5C 75,55.5 74,56.5 73,57.5C 71.4482,54.8813 71.6149,52.2146 73.5,49.5C 74.4776,49.9767 75.3109,50.6433 76,51.5C 79.0742,48.462 78.9075,45.7953 75.5,43.5C 74.109,44.6446 72.7757,44.6446 71.5,43.5C 72.0351,41.3392 72.8684,39.3392 74,37.5C 76,38.1667 78,38.8333 80,39.5C 82.1485,37.4277 81.9818,35.5944 79.5,34C 81.4812,33.3946 81.8146,32.3946 80.5,31C 82.1626,30.7351 83.6626,31.2351 85,32.5C 86.2036,31.5294 86.7036,30.5294 86.5,29.5C 87.086,29.7093 87.586,30.0426 88,30.5C 88.2868,32.8907 88.7868,35.2241 89.5,37.5C 94.5491,40.5005 96.8825,38.8339 96.5,32.5C 96.0647,34.5417 96.7314,36.5417 98.5,38.5C 98.2052,37.1745 98.7052,35.8412 100,34.5C 101.113,35.7604 101.28,36.927 100.5,38C 104.498,38.7109 105.165,37.7109 102.5,35C 104.103,30.4649 104.937,25.9649 105,21.5C 105.309,22.7659 105.809,23.9326 106.5,25C 106.167,25.3333 105.833,25.6667 105.5,26C 106.332,26.6877 106.998,26.521 107.5,25.5C 108,24.5 108.5,23.5 109,22.5C 109.605,25.2449 110.438,28.2449 111.5,31.5C 112.478,31.0233 113.311,30.3567 114,29.5C 114.333,30.5 114.667,31.5 115,32.5C 115.654,31.3044 116.154,31.3044 116.5,32.5C 115.764,34.5405 114.931,36.5405 114,38.5C 113.581,37.3279 112.915,36.3279 112,35.5C 110.196,38.014 110.03,40.6807 111.5,43.5C 110.597,45.6204 109.263,45.9538 107.5,44.5C 107.06,45.698 106.727,46.8647 106.5,48C 107.416,48.3742 108.25,48.8742 109,49.5C 109.065,47.1167 109.898,46.45 111.5,47.5C 112.167,45.8333 112.833,44.1667 113.5,42.5C 115.192,44.7947 116.026,47.1281 116,49.5C 116.638,48.3914 117.138,47.2247 117.5,46C 116.596,43.0541 115.93,40.3875 115.5,38C 115.998,36.8419 116.831,36.0085 118,35.5C 122.031,36.6983 124.531,39.365 125.5,43.5C 126.167,42.8333 126.833,42.1667 127.5,41.5C 127.726,44.3869 127.726,47.2202 127.5,50C 128.473,50.3491 129.306,51.1824 130,52.5C 130.333,51.1667 130.667,49.8333 131,48.5C 135.168,47.6644 135.335,46.6644 131.5,45.5C 130.005,42.3553 130.338,39.5219 132.5,37C 131.549,36.2825 131.383,35.4491 132,34.5C 132.814,37.5073 133.48,40.5073 134,43.5C 134.333,43.8333 134.667,44.1667 135,44.5C 135.419,43.3279 136.085,42.3279 137,41.5C 137.928,43.3348 139.094,43.6682 140.5,42.5C 143.497,45.7236 143.831,49.0569 141.5,52.5C 141.273,49.9628 140.44,47.2961 139,44.5C 138.261,47.5735 136.428,49.7402 133.5,51C 134.191,52.0674 134.691,53.2341 135,54.5C 135.777,52.2985 136.944,52.2985 138.5,54.5C 137.649,57.6124 136.483,57.9458 135,55.5C 133,58.5 133,61.5 135,64.5C 136.113,63.2396 136.28,62.073 135.5,61C 136.76,59.887 137.927,59.7203 139,60.5C 139.923,59.2412 140.757,57.9079 141.5,56.5C 142.251,57.376 142.751,58.376 143,59.5C 143.72,57.8876 143.554,56.3876 142.5,55C 143.787,53.5905 144.954,52.0905 146,50.5C 146.853,52.1247 147.853,52.4581 149,51.5C 150.044,52.6226 150.71,53.9559 151,55.5C 154.862,57.2118 157.029,60.2118 157.5,64.5C 158.425,63.3595 159.259,63.3595 160,64.5C 160.395,66.1786 160.228,67.8453 159.5,69.5C 159.719,70.938 160.219,72.2713 161,73.5C 161.36,71.5789 162.194,69.9122 163.5,68.5C 163.023,67.5224 162.357,66.6891 161.5,66C 162.357,65.3109 163.023,64.4776 163.5,63.5C 160.567,61.2619 160.901,60.2619 164.5,60.5C 164.33,61.8221 164.663,62.9887 165.5,64C 164.703,67.7454 164.203,71.5787 164,75.5C 163,75.1667 162,74.8333 161,74.5C 160.749,76.433 160.249,78.2663 159.5,80C 160,80.5 160.5,81 161,81.5C 161.583,79.9984 162.416,78.6651 163.5,77.5C 164.825,82.1075 164.825,87.1075 163.5,92.5C 162.5,92.5 161.5,92.5 160.5,92.5C 161.138,97.1237 161.138,101.624 160.5,106C 158.256,108.349 157.089,107.849 157,104.5C 156.215,106.286 155.049,107.786 153.5,109C 156.8,111.465 159.134,114.632 160.5,118.5C 161.635,117.897 162.635,117.564 163.5,117.5C 161.603,116.332 161.436,114.665 163,112.5C 164.147,114.731 165.147,117.065 166,119.5C 166.288,115.826 167.788,114.993 170.5,117C 170.413,119.13 170.413,121.297 170.5,123.5C 171.452,121.955 171.785,120.288 171.5,118.5C 172.5,118.5 173.5,118.5 174.5,118.5C 174.201,120.604 174.534,122.604 175.5,124.5C 176.736,123.754 178.07,123.421 179.5,123.5C 179.5,142.167 179.5,160.833 179.5,179.5C 119.5,179.5 59.5,179.5 -0.5,179.5C -0.5,127.833 -0.5,76.1667 -0.5,24.5C 2.11342,17.8377 4.78009,18.0044 7.5,25C 6.24119,25.9234 4.90785,26.7568 3.5,27.5C 4.06006,29.8537 4.72672,32.187 5.5,34.5C 6.83042,36.0932 8.16375,37.7598 9.5,39.5C 7.56434,42.208 7.06434,45.208 8,48.5C 9.48701,47.7471 9.65367,46.9138 8.5,46C 9.44802,45.5172 10.448,45.3505 11.5,45.5C 11.2606,47.4672 11.5939,49.3005 12.5,51C 11.2913,55.2642 9.79129,55.0976 8,50.5C 7.36453,51.9663 6.53119,53.2997 5.5,54.5C 6.16667,54.8333 6.83333,55.1667 7.5,55.5C 7.30944,61.7375 7.30944,68.0708 7.5,74.5C 6.32496,74.281 5.32496,74.6143 4.5,75.5C 3.43828,78.1029 3.27161,80.7695 4,83.5C 6.1485,84.9774 7.48183,86.9774 8,89.5C 8.9138,88.3463 9.74714,88.513 10.5,90C 9.32791,90.4186 8.32791,91.0853 7.5,92C 7.58571,95.1133 7.91904,98.28 8.5,101.5C 10.5184,100.187 11.6851,100.853 12,103.5C 12.972,101.695 14.1387,100.028 15.5,98.5C 17.3642,100.338 19.3642,101.838 21.5,103C 20.3875,105.883 18.7208,108.383 16.5,110.5C 13.3557,111.014 10.3557,111.847 7.5,113C 8.25286,114.487 9.0862,114.654 10,113.5C 10.9771,116.102 12.1437,118.602 13.5,121C 12.8333,121.333 12.1667,121.667 11.5,122C 12.8333,123.333 12.8333,124.667 11.5,126C 12,126.5 12.5,127 13,127.5C 13.5831,125.998 14.4164,124.665 15.5,123.5C 17.064,126.136 18.3974,125.969 19.5,123C 18.6433,122.311 17.9767,121.478 17.5,120.5C 19.0064,119.253 20.5064,119.253 22,120.5C 22.49,119.207 22.6567,117.873 22.5,116.5C 20.0523,116.915 18.7189,115.915 18.5,113.5C 18.7332,112.068 19.3999,111.568 20.5,112C 20.3808,113.281 20.8808,114.448 22,115.5C 22.3333,106.833 22.6667,98.1667 23,89.5C 23.3333,88.8333 23.6667,88.1667 24,87.5C 24.958,90.0747 25.458,92.7414 25.5,95.5C 24.7402,100.134 24.4068,104.634 24.5,109C 27.394,111.051 28.0607,110.385 26.5,107C 27.1667,106 27.8333,105 28.5,104C 25.6677,102.092 26.001,101.259 29.5,101.5C 29.272,103.355 29.9387,104.188 31.5,104C 30.3595,103.259 30.3595,102.425 31.5,101.5C 33.012,100.138 34.512,99.8042 36,100.5C 36.3333,98.5 36.6667,96.5 37,94.5C 38.2074,96.4399 38.374,98.2733 37.5,100C 38.1667,103.667 38.8333,107.333 39.5,111C 38.8095,112.067 38.3095,113.234 38,114.5C 35.4736,112.672 33.1403,110.672 31,108.5C 30.654,110.218 30.154,111.885 29.5,113.5C 32.6918,113.958 34.8585,115.624 36,118.5C 37.3639,117.742 38.5305,118.242 39.5,120C 39.0445,122.682 39.0445,125.515 39.5,128.5C 37.9772,132.234 36.8105,131.901 36,127.5C 35.6667,128.167 35.3333,128.833 35,129.5C 34.3333,128.167 33.6667,128.167 33,129.5C 32,127.833 31,126.167 30,124.5C 28.6143,126.747 28.781,129.08 30.5,131.5C 31.086,131.291 31.586,130.957 32,130.5C 33.5292,131.729 34.6959,133.229 35.5,135C 36.448,135.483 37.448,135.649 38.5,135.5C 38.2436,137.792 38.5769,139.959 39.5,142C 38.9103,143.509 38.2436,145.009 37.5,146.5C 36.8076,145.975 36.3076,145.308 36,144.5C 35.1667,146.167 34.3333,147.833 33.5,149.5C 33.9439,154.012 34.2773,158.679 34.5,163.5C 35.552,163.649 36.552,163.483 37.5,163C 37.1667,162.667 36.8333,162.333 36.5,162C 38.4211,161.64 40.0878,160.806 41.5,159.5C 42.9347,160.824 43.9347,162.49 44.5,164.5C 45.7825,161.628 45.7825,158.795 44.5,156C 45,155.5 45.5,155 46,154.5C 46.9814,157.655 48.3148,157.988 50,155.5C 50.1816,152.774 50.6816,150.107 51.5,147.5C 51.4493,155.065 51.9493,162.732 53,170.5C 53.6667,167.833 54.3333,167.833 55,170.5C 56.57,169.642 58.2367,168.975 60,168.5C 63.2046,169.79 64.0379,168.79 62.5,165.5C 63.8064,164.088 64.6397,162.421 65,160.5C 65.2896,162.044 65.9563,163.377 67,164.5C 67.2895,162.048 67.9562,159.715 69,157.5C 69.9138,158.654 70.7471,158.487 71.5,157C 71.5795,155.093 71.2461,153.093 70.5,151C 71.0611,149.324 72.0611,147.991 73.5,147C 72.5324,143.595 71.0324,143.095 69,145.5C 68.8295,143.285 68.1628,141.285 67,139.5C 65.6439,140.38 64.1439,140.714 62.5,140.5C 61.2647,138.227 61.5981,136.394 63.5,135C 63.0183,133.992 62.8516,132.825 63,131.5C 61.2602,132.716 60.2602,134.382 60,136.5C 58.527,136.868 57.027,136.368 55.5,135C 56.1667,134.667 56.8333,134.333 57.5,134C 54.8333,133.333 54.8333,132.667 57.5,132C 54.7896,130.245 53.1229,127.745 52.5,124.5C 52.4375,126.26 52.4375,128.094 52.5,130C 50.3435,130.078 48.3435,130.245 46.5,130.5C 45.2011,129.91 44.3678,128.91 44,127.5C 43.0853,128.328 42.4186,129.328 42,130.5C 39.2719,127.729 39.4386,125.895 42.5,125C 41.572,124.612 40.9054,123.945 40.5,123C 41.6493,121.27 41.6493,119.604 40.5,118C 41.0712,116.795 41.7379,115.628 42.5,114.5C 42.7572,116.082 43.4239,117.915 44.5,120C 43.6919,120.308 43.0253,120.808 42.5,121.5C 43.154,123.115 43.654,124.782 44,126.5C 44.7065,124.919 45.5399,123.419 46.5,122C 45.3895,119.263 45.2228,116.429 46,113.5C 46.7504,114.126 47.5838,114.626 48.5,115C 47.9805,117.026 47.6472,119.026 47.5,121C 48.1258,121.75 48.6258,122.584 49,123.5C 49.2256,120.905 49.7256,118.405 50.5,116C 50.1667,115.667 49.8333,115.333 49.5,115C 53.0508,114.76 56.2175,113.593 59,111.5C 61.271,114.12 61.9377,117.12 61,120.5C 57.6238,121.044 55.7905,123.044 55.5,126.5C 57.3313,126.326 59.1646,125.326 61,123.5C 61.3333,124.167 61.6667,124.833 62,125.5C 62.7175,124.549 63.5509,124.383 64.5,125C 63.9394,126.566 64.6061,127.899 66.5,129C 65.8333,130 65.1667,131 64.5,132C 66.3912,135.418 67.7246,135.251 68.5,131.5C 67.2622,128.834 67.2622,126.168 68.5,123.5C 69.8064,124.912 70.6397,126.579 71,128.5C 71.3333,126.5 71.6667,124.5 72,122.5C 72.7175,121.549 73.5509,121.383 74.5,122C 74.5,124.667 74.5,127.333 74.5,130C 75.1258,130.75 75.6258,131.584 76,132.5C 76.2189,131.062 76.7189,129.729 77.5,128.5C 80.4989,127.496 81.6655,125.496 81,122.5C 76.5377,120.611 75.371,116.944 77.5,111.5C 78.1667,111.833 78.8333,112.167 79.5,112.5C 81.594,109.969 84.2607,109.136 87.5,110C 88.7909,112.878 90.2909,112.712 92,109.5C 91.9227,110.738 92.0894,111.738 92.5,112.5C 93.8333,111.5 95.1667,110.5 96.5,109.5C 97.5984,110.615 98.7651,110.615 100,109.5C 102.64,110.86 102.807,112.193 100.5,113.5C 98.4257,111.172 97.4257,111.839 97.5,115.5C 100.714,116.528 102.548,118.862 103,122.5C 103.346,120.782 103.846,119.115 104.5,117.5C 103.48,115.568 103.313,113.568 104,111.5C 105.513,114.078 106.68,116.745 107.5,119.5C 108.562,118.23 109.562,117.063 110.5,116C 110.167,115.667 109.833,115.333 109.5,115C 111.792,116.101 113.292,115.268 114,112.5C 115.154,114.957 116.488,114.957 118,112.5C 119.667,115.167 121.333,115.167 123,112.5C 123.5,113.667 124.333,114.5 125.5,115C 123.285,116.391 123.285,118.057 125.5,120C 124.167,121.333 124.167,122.667 125.5,124C 124.833,124.333 124.167,124.667 123.5,125C 125.271,129.336 126.438,128.836 127,123.5C 128.009,125.025 128.509,126.692 128.5,128.5C 129.5,128.5 130.5,128.5 131.5,128.5C 131.343,127.127 131.51,125.793 132,124.5C 133.84,125.833 134.34,125.666 133.5,124C 134.672,123.581 135.672,122.915 136.5,122C 135.069,121.535 133.903,120.701 133,119.5C 132.667,120.167 132.333,120.833 132,121.5C 130.437,118.956 128.937,118.956 127.5,121.5C 126.796,118.296 126.13,115.129 125.5,112C 126.211,110.745 127.044,109.579 128,108.5C 129.92,111.438 132.42,112.105 135.5,110.5C 136.82,112.27 138.32,112.603 140,111.5C 141.506,113.174 143.339,114.174 145.5,114.5C 145.312,112.897 145.812,111.563 147,110.5C 147.333,111.167 147.667,111.833 148,112.5C 148.72,110.888 148.554,109.388 147.5,108C 148.672,107.581 149.672,106.915 150.5,106C 148.845,103.753 148.512,101.42 149.5,99C 149.167,98.8333 148.833,98.6667 148.5,98.5C 147.272,105.335 145.272,105.835 142.5,100C 139.631,97.775 138.131,98.6083 138,102.5C 137.23,101.402 136.397,101.402 135.5,102.5 Z"/></g>
<g><path style="opacity:1" fill="#f1f1f1" d="M 46.5,76.5 C 52.1764,76.3339 57.8431,76.5006 63.5,77C 68.3416,80.6942 68.6749,84.6942 64.5,89C 69.8333,93.3333 69.8333,97.6667 64.5,102C 58.5933,103.361 52.5933,103.861 46.5,103.5C 46.5,94.5 46.5,85.5 46.5,76.5 Z"/></g>
<g><path style="opacity:1" fill="#f5f6f6" d="M 130.5,82.5 C 131.568,83.4345 132.901,83.7678 134.5,83.5C 134.5,84.8333 134.5,86.1667 134.5,87.5C 133.167,87.5 131.833,87.5 130.5,87.5C 130.5,91.1667 130.5,94.8333 130.5,98.5C 132.167,98.5 133.833,98.5 135.5,98.5C 135.5,99.8333 135.5,101.167 135.5,102.5C 133.372,103.629 131.039,103.796 128.5,103C 126.624,102.082 125.624,100.582 125.5,98.5C 125.5,94.8333 125.5,91.1667 125.5,87.5C 124.5,87.5 123.5,87.5 122.5,87.5C 122.5,86.1667 122.5,84.8333 122.5,83.5C 123.791,83.7373 124.791,83.404 125.5,82.5C 125.5,80.8333 125.5,79.1667 125.5,77.5C 127.167,77.5 128.833,77.5 130.5,77.5C 130.5,79.1667 130.5,80.8333 130.5,82.5 Z"/></g>
<g><path style="opacity:1" fill="#9e9fa0" d="M 59.5,81.5 C 57.1667,81.5 54.8333,81.5 52.5,81.5C 52.5,83.1667 52.5,84.8333 52.5,86.5C 54.8333,86.5 57.1667,86.5 59.5,86.5C 57.0521,87.4731 54.3854,87.8064 51.5,87.5C 51.5,85.1667 51.5,82.8333 51.5,80.5C 54.3854,80.1936 57.0521,80.5269 59.5,81.5 Z"/></g>
<g><path style="opacity:1" fill="#26272a" d="M 59.5,81.5 C 62.1667,83.1667 62.1667,84.8333 59.5,86.5C 57.1667,86.5 54.8333,86.5 52.5,86.5C 52.5,84.8333 52.5,83.1667 52.5,81.5C 54.8333,81.5 57.1667,81.5 59.5,81.5 Z"/></g>
<g><path style="opacity:1" fill="#edeeee" d="M 120.5,90.5 C 119.447,102.357 113.447,106.024 102.5,101.5C 96.8423,95.293 97.1756,89.4597 103.5,84C 111.301,80.9841 116.967,83.1508 120.5,90.5 Z"/></g>
<g><path style="opacity:1" fill="#969798" d="M 125.5,82.5 C 124.791,83.404 123.791,83.7373 122.5,83.5C 122.5,84.8333 122.5,86.1667 122.5,87.5C 121.549,86.0813 121.216,84.4147 121.5,82.5C 122.833,82.5 124.167,82.5 125.5,82.5 Z"/></g>
<g><path style="opacity:1" fill="#8a8b8d" d="M 130.5,82.5 C 132.167,82.5 133.833,82.5 135.5,82.5C 135.784,84.4147 135.451,86.0813 134.5,87.5C 134.5,86.1667 134.5,84.8333 134.5,83.5C 132.901,83.7678 131.568,83.4345 130.5,82.5 Z"/></g>
<g><path style="opacity:1" fill="#2e2f31" d="M 106.5,87.5 C 114.053,86.8819 116.386,90.0486 113.5,97C 106.083,99.922 103.25,97.422 105,89.5C 105.717,88.9558 106.217,88.2891 106.5,87.5 Z"/></g>
<g><path style="opacity:1" fill="#2e2f32" d="M 52.5,91.5 C 55.1873,91.3359 57.854,91.5026 60.5,92C 63.033,94.084 63.033,96.084 60.5,98C 57.854,98.4974 55.1873,98.6641 52.5,98.5C 52.5,96.1667 52.5,93.8333 52.5,91.5 Z"/></g>
<g><path style="opacity:1" fill="#e97d1e" d="M 94.5,85.5 C 94.3914,89.4457 94.3914,93.7791 94.5,98.5C 92.9582,99.3007 91.2915,99.634 89.5,99.5C 89.1173,103.938 87.284,104.605 84,101.5C 82.4029,102.885 80.5695,103.551 78.5,103.5C 79.1667,99.5 77.5,97.8333 73.5,98.5C 73.5191,96.9397 73.8524,95.4397 74.5,94C 73.1153,92.4029 72.4486,90.5695 72.5,88.5C 73.5,88.5 74.5,88.5 75.5,88.5C 73.8692,84.124 75.5359,82.4573 80.5,83.5C 80.5,82.5 80.5,81.5 80.5,80.5C 82.5695,80.4486 84.4029,81.1153 86,82.5C 87.4397,81.8524 88.9397,81.5191 90.5,81.5C 90.5,82.8333 90.5,84.1667 90.5,85.5C 91.8333,85.5 93.1667,85.5 94.5,85.5 Z"/></g>
<g><path style="opacity:1" fill="#2a2828" d="M 81.5,87.5 C 88.9974,86.8038 90.9974,89.6372 87.5,96C 79.749,97.0913 77.749,94.258 81.5,87.5 Z"/></g>
</svg>
